<?xml version="1.0" encoding="utf-8"?>
<!-- Generator: Adobe Illustrator 27.5.0, SVG Export Plug-In . SVG Version: 6.00 Build 0)  -->
<svg version="1.1" id="Layer_1" xmlns="http://www.w3.org/2000/svg" xmlns:xlink="http://www.w3.org/1999/xlink" x="0px" y="0px"
	 viewBox="0 0 216.589 308.389" style="enable-background:new 0 0 216.589 308.389;" xml:space="preserve">
<g>
	<g>
		<path style="fill:#595A59;" d="M38.374,197.146c-10.386,0-17.521-4.518-17.611-4.576c-0.163-0.107-0.21-0.324-0.104-0.487
			c0.106-0.162,0.322-0.209,0.486-0.104c0.114,0.073,11.553,7.305,26.514,3.212c14.566-3.985,27.424-16.969,38.214-38.59
			c0.083-0.165,0.277-0.237,0.446-0.168c0.102,0.04,10.299,4.079,24.433,1.023c23.657-5.12,39.995-25.838,49.535-42.314
			c0.097-0.17,0.314-0.226,0.48-0.129c0.167,0.099,0.226,0.312,0.128,0.48c-9.619,16.614-26.108,37.502-50.037,42.659
			c-12.968,2.795-22.683-0.305-24.498-0.956c-10.857,21.646-23.82,34.657-38.529,38.678
			C44.477,196.789,41.297,197.146,38.374,197.146z"/>
		<g>
			<g>
				<g>
					<g>
						<path style="fill:#8096A3;" d="M25.684,260.421l-0.12-0.124l0.02-0.271l9.718-11.676l9.344,11.225l0.062,0.846h1.626
							l-5.007-67.636c0.007-0.05,0.002-0.098-0.011-0.144l-1.524-20.598c-0.032-0.422-0.385-0.749-0.811-0.749h-7.7
							c-0.425,0-0.778,0.327-0.809,0.749l-6.545,88.377H25.684z M28.742,239.382h13.123l-6.562,7.883L28.742,239.382z
							 M43.15,239.378l1.407,19.004l-8.802-10.572l7.015-8.428h0.319C43.111,239.382,43.129,239.378,43.15,239.378z M41.453,216.456
							l1.377,18.6l-7.105-10.339l5.675-8.261H41.453z M35.303,224.1l-5.253-7.644h10.506L35.303,224.1z M41.146,212.305
							l-5.443-9.576l4.188-7.367L41.146,212.305z M39.433,189.183l-3.955-8.648l2.848-6.303L39.433,189.183z M32.035,172.914h6.124
							l-3.063,6.778l-3.064-6.702L32.035,172.914z M31.924,174.43l2.792,6.105l-3.879,8.585L31.924,174.43z M30.686,191.14
							l4.412-9.766l4.484,9.805l0.045,0.612h-8.989L30.686,191.14z M30.518,193.412h9.229l0.053,0.705l-4.496,7.91l-4.799-8.442
							L30.518,193.412z M30.413,194.831l4.49,7.898l-5.837,10.267L30.413,194.831z M28.948,214.615l6.354-11.182l5.963,10.489
							l0.067,0.91H28.935l-0.003-0.003L28.948,214.615z M28.811,216.456h0.395l5.675,8.261l-7.489,10.896L28.811,216.456z
							 M27.291,236.991l8.012-11.663l7.629,11.104l0.098,1.33H27.391l-0.146-0.175L27.291,236.991z M27.114,239.382h0.723
							l7.013,8.428l-9.176,11.023L27.114,239.382z"/>
						<path style="fill:#434343;" d="M30.319,192.623c0,0.19-0.156,0.347-0.348,0.347c-0.192,0-0.35-0.156-0.35-0.347
							c0-0.192,0.158-0.349,0.35-0.349C30.163,192.275,30.319,192.431,30.319,192.623z"/>
						<path style="fill:#434343;" d="M40.578,192.623c0,0.19-0.156,0.347-0.349,0.347c-0.192,0-0.347-0.156-0.347-0.347
							c0-0.192,0.155-0.349,0.347-0.349C40.422,192.275,40.578,192.431,40.578,192.623z"/>
						<path style="fill:#434343;" d="M28.407,215.515c0,0.192-0.157,0.349-0.35,0.349c-0.192,0-0.346-0.156-0.346-0.349
							c0-0.192,0.154-0.348,0.346-0.348C28.25,215.167,28.407,215.322,28.407,215.515z"/>
						<path style="fill:#434343;" d="M42.316,215.515c0,0.192-0.156,0.349-0.348,0.349c-0.192,0-0.348-0.156-0.348-0.349
							c0-0.192,0.156-0.348,0.348-0.348C42.16,215.167,42.316,215.322,42.316,215.515z"/>
						<path style="fill:#8096A3;" d="M26.899,238.583c0,0.193-0.154,0.348-0.348,0.348c-0.191,0-0.348-0.154-0.348-0.348
							c0-0.193,0.157-0.348,0.348-0.348C26.745,238.235,26.899,238.39,26.899,238.583z"/>
						<path style="fill:#8096A3;" d="M43.997,238.583c0,0.193-0.156,0.348-0.348,0.348c-0.191,0-0.348-0.154-0.348-0.348
							c0-0.193,0.157-0.348,0.348-0.348C43.841,238.235,43.997,238.39,43.997,238.583z"/>
					</g>
					<rect x="28.579" y="170.019" style="fill:#434343;" width="12.983" height="2.318"/>
					<polygon style="fill:#272727;" points="38.665,170.599 31.477,170.599 34.839,164.57 					"/>
				</g>
				<rect x="20.953" y="259.008" style="fill:#999998;" width="28.358" height="45.014"/>
			</g>
			<rect x="20.953" y="284.666" style="fill:#595A59;" width="28.358" height="19.355"/>
			<path style="fill:#434343;" d="M35.479,238.583c0,0.193-0.155,0.348-0.348,0.348c-0.192,0-0.347-0.154-0.347-0.348
				c0-0.191,0.155-0.348,0.347-0.348C35.324,238.235,35.479,238.392,35.479,238.583z"/>
			<path style="fill:#434343;" d="M35.48,238.583c0,0.193-0.156,0.348-0.349,0.348c-0.191,0-0.348-0.154-0.348-0.348
				c0-0.191,0.157-0.348,0.348-0.348C35.324,238.235,35.48,238.392,35.48,238.583z"/>
			<rect x="19.861" y="190.518" style="fill:#979696;" width="30.542" height="3.514"/>
		</g>
		<g>
			<g>
				<g>
					<g>
						<path style="fill:#8096A3;" d="M92.05,246.561l-0.158-0.16l0.026-0.357l12.807-15.385l12.313,14.791l0.081,1.111h2.145
							l-6.6-89.131c0.009-0.063,0.004-0.127-0.016-0.188l-2.008-27.145c-0.043-0.557-0.507-0.988-1.067-0.988H99.426
							c-0.559,0-1.024,0.432-1.065,0.988l-8.626,116.463H92.05z M96.08,218.838h17.293l-8.647,10.389L96.08,218.838z
							 M115.067,218.833l1.854,25.044l-11.599-13.933l9.244-11.106h0.422C115.015,218.838,115.041,218.834,115.067,218.833z
							 M112.831,188.627l1.816,24.508l-9.365-13.626l7.479-10.882H112.831z M104.726,198.701l-6.923-10.074h13.847L104.726,198.701z
							 M112.425,183.155l-7.172-12.62l5.519-9.709L112.425,183.155z M110.17,152.684l-5.212-11.397l3.753-8.304L110.17,152.684z
							 M100.42,131.246h8.068l-4.037,8.934l-4.039-8.834L100.42,131.246z M100.272,133.243l3.678,8.044l-5.112,11.313
							L100.272,133.243z M98.642,155.262l5.814-12.868l5.907,12.921l0.06,0.805H98.576L98.642,155.262z M98.42,158.257h12.162
							l0.068,0.931l-5.925,10.422l-6.323-11.124L98.42,158.257z M98.282,160.127l5.918,10.408l-7.691,13.532L98.282,160.127z
							 M96.351,186.2l8.375-14.736l7.857,13.825l0.09,1.199h-16.34l-0.004-0.006L96.351,186.2z M96.171,188.627h0.521l7.477,10.882
							l-9.867,14.36L96.171,188.627z M94.168,215.684l10.558-15.365l10.054,14.629l0.13,1.756h-20.61l-0.191-0.23L94.168,215.684z
							 M93.935,218.838h0.953l9.243,11.106l-12.093,14.526L93.935,218.838z"/>
						<path style="fill:#434343;" d="M98.156,157.216c0,0.254-0.204,0.458-0.457,0.458c-0.253,0-0.46-0.204-0.46-0.458
							c0-0.254,0.206-0.46,0.46-0.46C97.952,156.756,98.156,156.962,98.156,157.216z"/>
						<path style="fill:#434343;" d="M111.677,157.216c0,0.254-0.207,0.458-0.459,0.458c-0.254,0-0.458-0.204-0.458-0.458
							c0-0.254,0.205-0.46,0.458-0.46C111.47,156.756,111.677,156.962,111.677,157.216z"/>
						<path style="fill:#434343;" d="M95.638,187.385c0,0.254-0.206,0.459-0.459,0.459c-0.254,0-0.457-0.205-0.457-0.459
							c0-0.252,0.203-0.459,0.457-0.459C95.432,186.926,95.638,187.133,95.638,187.385z"/>
						<path style="fill:#434343;" d="M113.967,187.385c0,0.254-0.205,0.459-0.457,0.459c-0.253,0-0.459-0.205-0.459-0.459
							c0-0.252,0.205-0.459,0.459-0.459C113.763,186.926,113.967,187.133,113.967,187.385z"/>
						<path style="fill:#8096A3;" d="M93.65,217.785c0,0.253-0.204,0.459-0.457,0.459c-0.253,0-0.459-0.206-0.459-0.459
							c0-0.254,0.205-0.458,0.459-0.458C93.447,217.327,93.65,217.531,93.65,217.785z"/>
						<path style="fill:#8096A3;" d="M116.182,217.785c0,0.253-0.204,0.459-0.458,0.459c-0.253,0-0.458-0.206-0.458-0.459
							c0-0.254,0.206-0.458,0.458-0.458C115.978,217.327,116.182,217.531,116.182,217.785z"/>
					</g>
					<rect x="95.865" y="127.429" style="fill:#434343;" width="17.109" height="3.055"/>
					<polygon style="fill:#272727;" points="109.155,128.191 99.685,128.191 104.115,120.248 					"/>
				</g>
				<rect x="85.815" y="244.701" style="fill:#999998;" width="37.37" height="59.32"/>
			</g>
			<rect x="85.815" y="278.514" style="fill:#595A59;" width="37.37" height="25.508"/>
			<path style="fill:#434343;" d="M104.959,217.787c0,0.252-0.205,0.457-0.459,0.457c-0.252,0-0.457-0.205-0.457-0.457
				c0-0.254,0.206-0.46,0.457-0.46C104.754,217.327,104.959,217.533,104.959,217.787z"/>
			<path style="fill:#434343;" d="M104.96,217.787c0,0.252-0.206,0.457-0.46,0.457c-0.252,0-0.459-0.205-0.459-0.457
				c0-0.254,0.207-0.46,0.459-0.46C104.754,217.327,104.96,217.533,104.96,217.787z"/>
			<rect x="84.376" y="154.444" style="fill:#979696;" width="40.249" height="4.627"/>
		</g>
		<g>
			<g>
				<g>
					<g>
						<path style="fill:#8096A3;" d="M168.462,230.162l-0.202-0.207l0.033-0.458l16.464-19.775l15.827,19.013l0.105,1.428h2.757
							l-8.484-114.568c0.01-0.083,0.005-0.166-0.019-0.244l-2.582-34.889c-0.055-0.719-0.651-1.273-1.372-1.273h-13.044
							c-0.72,0-1.317,0.555-1.369,1.273l-11.087,149.701H168.462z M173.641,194.528h22.229l-11.113,13.353L173.641,194.528z
							 M198.049,194.52l2.384,32.192l-14.91-17.909l11.883-14.274h0.54C197.982,194.528,198.014,194.523,198.049,194.52z
							 M195.173,155.691l2.335,31.504l-12.037-17.515l9.614-13.989H195.173z M184.757,168.641l-8.899-12.949h17.797L184.757,168.641
							z M194.652,148.659l-9.218-16.221l7.094-12.48L194.652,148.659z M191.753,109.491l-6.699-14.65l4.824-10.673L191.753,109.491z
							 M179.221,81.935h10.371l-5.189,11.481l-5.191-11.354L179.221,81.935z M179.032,84.502l4.727,10.341l-6.571,14.542
							L179.032,84.502z M176.936,112.807l7.474-16.541l7.594,16.607l0.076,1.034h-15.228L176.936,112.807z M176.65,116.654h15.634
							l0.087,1.196l-7.614,13.397l-8.129-14.299L176.65,116.654z M176.471,119.059l7.608,13.38l-9.886,17.392L176.471,119.059z
							 M173.99,152.574l10.767-18.943l10.098,17.769l0.116,1.541h-21.002l-0.006-0.006L173.99,152.574z M173.758,155.691h0.671
							l9.612,13.989l-12.685,18.458L173.758,155.691z M171.184,190.473l13.573-19.753l12.923,18.805l0.166,2.258h-26.491
							l-0.247-0.297L171.184,190.473z M170.884,194.528h1.224l11.881,14.274l-15.543,18.672L170.884,194.528z"/>
						<path style="fill:#434343;" d="M176.312,115.318c0,0.323-0.262,0.588-0.588,0.588c-0.324,0-0.59-0.265-0.59-0.588
							c0-0.328,0.266-0.59,0.59-0.59C176.049,114.729,176.312,114.99,176.312,115.318z"/>
						<path style="fill:#434343;" d="M193.691,115.318c0,0.323-0.266,0.588-0.59,0.588c-0.327,0-0.59-0.265-0.59-0.588
							c0-0.328,0.264-0.59,0.59-0.59C193.425,114.729,193.691,114.99,193.691,115.318z"/>
						<path style="fill:#434343;" d="M173.074,154.099c0,0.325-0.264,0.588-0.59,0.588c-0.325,0-0.587-0.263-0.587-0.588
							c0-0.327,0.262-0.589,0.587-0.589C172.81,153.51,173.074,153.771,173.074,154.099z"/>
						<path style="fill:#434343;" d="M196.636,154.099c0,0.325-0.264,0.588-0.59,0.588c-0.325,0-0.589-0.263-0.589-0.588
							c0-0.327,0.264-0.589,0.589-0.589C196.372,153.51,196.636,153.771,196.636,154.099z"/>
						<path style="fill:#8096A3;" d="M170.52,193.172c0,0.325-0.262,0.592-0.59,0.592c-0.324,0-0.589-0.267-0.589-0.592
							c0-0.324,0.265-0.587,0.589-0.587C170.259,192.585,170.52,192.848,170.52,193.172z"/>
						<path style="fill:#8096A3;" d="M199.482,193.172c0,0.325-0.263,0.592-0.588,0.592c-0.326,0-0.589-0.267-0.589-0.592
							c0-0.324,0.263-0.587,0.589-0.587C199.219,192.585,199.482,192.848,199.482,193.172z"/>
					</g>
					<rect x="173.367" y="77.027" style="fill:#434343;" width="21.991" height="3.928"/>
					<polygon style="fill:#272727;" points="190.45,78.01 178.276,78.01 183.97,67.797 					"/>
				</g>
				<rect x="160.447" y="227.771" style="fill:#999998;" width="48.037" height="76.251"/>
			</g>
			<rect x="160.447" y="271.233" style="fill:#595A59;" width="48.037" height="32.788"/>
			<path style="fill:#434343;" d="M185.055,193.175c0,0.325-0.263,0.589-0.588,0.589c-0.325,0-0.588-0.264-0.588-0.589
				c0-0.327,0.263-0.59,0.588-0.59C184.792,192.585,185.055,192.848,185.055,193.175z"/>
			<path style="fill:#434343;" d="M185.055,193.175c0,0.325-0.264,0.589-0.589,0.589c-0.324,0-0.589-0.264-0.589-0.589
				c0-0.327,0.265-0.59,0.589-0.59C184.792,192.585,185.055,192.848,185.055,193.175z"/>
			<rect x="158.598" y="111.754" style="fill:#979696;" width="51.738" height="5.948"/>
		</g>
		<path style="fill:#595A59;" d="M69.484,195.965c-11.697,0-20.201-3.323-20.303-3.365c-0.181-0.071-0.269-0.276-0.197-0.454
			c0.072-0.183,0.277-0.271,0.457-0.197c0.122,0.049,12.333,4.814,27.587,2.835c14.063-1.827,33.683-9.931,47.281-38.176
			c0.075-0.159,0.258-0.237,0.422-0.186c0.132,0.043,13.166,4.097,30.116,1.034c15.633-2.824,37.896-12.457,55.183-42.314
			c0.097-0.168,0.311-0.226,0.48-0.129c0.168,0.099,0.226,0.312,0.129,0.48c-17.431,30.105-39.911,39.816-55.701,42.661
			c-15.703,2.829-28.089-0.393-30.125-0.975c-7.62,15.706-22.061,34.986-47.726,38.303
			C74.448,195.824,71.898,195.965,69.484,195.965z"/>
		<rect x="35.132" y="259.008" style="opacity:0.4;fill:#797A79;" width="14.179" height="45.014"/>
		<rect x="104.5" y="244.701" style="opacity:0.4;fill:#797A79;" width="18.686" height="59.32"/>
		<rect x="184.467" y="227.771" style="opacity:0.4;fill:#797A79;" width="24.018" height="76.251"/>
	</g>
	<g>
		<path style="fill:#CACAC7;" d="M61.467,64.25c0,13.129-10.645,23.773-23.775,23.773l0,0c-13.129,0-23.774-10.645-23.774-23.773
			V28.178c0-13.133,10.645-23.775,23.774-23.775l0,0c13.13,0,23.775,10.643,23.775,23.775V64.25z"/>
		<path style="fill:#A62B1E;" d="M59.407,18.504c-0.364-0.816-0.77-1.609-1.221-2.373H17.197c-0.451,0.764-0.856,1.557-1.22,2.373
			H59.407z"/>
		<path style="fill:#A62B1E;" d="M61.399,65.951c0.04-0.562,0.068-1.128,0.068-1.701v-6.922H13.917v6.922
			c0,0.573,0.027,1.14,0.067,1.701H61.399z"/>
		<path style="opacity:0.4;fill:#979696;" d="M37.692,4.402c-0.037,0-0.074,0.002-0.111,0.002v83.617
			c0.038,0,0.074,0.002,0.111,0.002c13.13,0,23.775-10.645,23.775-23.773V28.178C61.467,15.045,50.822,4.402,37.692,4.402z"/>
		<g>
			<g>
				<g>
					<rect x="6.789" y="76.438" style="fill:#6C6D6C;" width="4.404" height="11.585"/>
					<rect x="6.789" y="76.438" style="fill:#474947;" width="4.404" height="2.73"/>
				</g>
				<g>
					<rect x="65.887" y="76.438" style="fill:#6C6D6C;" width="4.404" height="11.585"/>
					<rect x="65.887" y="76.438" style="fill:#474947;" width="4.404" height="2.73"/>
				</g>
				<g>
					<rect x="26.488" y="76.438" style="fill:#6C6D6C;" width="4.404" height="11.585"/>
					<rect x="26.488" y="76.438" style="fill:#474947;" width="4.404" height="2.73"/>
				</g>
				<g>
					<rect x="46.187" y="76.438" style="fill:#6C6D6C;" width="4.404" height="11.585"/>
					<rect x="46.187" y="76.438" style="fill:#474947;" width="4.404" height="2.73"/>
				</g>
			</g>
			<g>
				<rect x="5.857" y="74.832" style="fill:#555557;" width="64.939" height="1.272"/>
				<rect x="5.857" y="75.801" style="fill:#272726;" width="64.939" height="1.275"/>
			</g>
		</g>
		<path style="opacity:0.5;fill:#D8EFFC;" d="M35.73,5.705c0,0-21.813,0.977-20.879,28.128C14.851,33.833,16.287,12.858,35.73,5.705
			z"/>
		<g>
			<g>
				<g>
					<rect x="26.488" y="27.854" style="fill:#1D1D1B;" width="4.404" height="2.728"/>
				</g>
				<g>
					<rect x="46.187" y="27.854" style="fill:#1D1D1B;" width="4.404" height="2.728"/>
				</g>
			</g>
			<g>
				<rect x="12.223" y="26.246" style="fill:#555557;" width="51.355" height="1.273"/>
				<rect x="12.223" y="27.217" style="fill:#272726;" width="51.355" height="1.273"/>
			</g>
		</g>
		<g>
			<rect x="15.96" y="24.059" style="fill:#1D1D1B;" width="0.71" height="50.773"/>
			<rect x="24.566" y="24.059" style="fill:#1D1D1B;" width="0.71" height="50.773"/>
			<g>
				<rect x="16.315" y="33.064" style="fill:#1D1D1B;" width="8.606" height="0.25"/>
				<rect x="16.315" y="26.837" style="fill:#1D1D1B;" width="8.606" height="0.253"/>
				<rect x="16.315" y="45.515" style="fill:#1D1D1B;" width="8.606" height="0.251"/>
				<rect x="16.315" y="39.289" style="fill:#1D1D1B;" width="8.606" height="0.25"/>
				<rect x="16.315" y="57.965" style="fill:#1D1D1B;" width="8.606" height="0.252"/>
				<rect x="16.315" y="51.74" style="fill:#1D1D1B;" width="8.606" height="0.25"/>
				<rect x="16.315" y="70.418" style="fill:#1D1D1B;" width="8.606" height="0.25"/>
				<rect x="16.315" y="64.191" style="fill:#1D1D1B;" width="8.606" height="0.251"/>
			</g>
		</g>
	</g>
	<g>
		<g>
			<g>
				<g>
					<rect x="36.75" y="98.332" style="fill:#E3E3E3;" width="21.299" height="31.904"/>
					<rect x="47.399" y="98.332" style="fill:#E3E3E3;" width="10.65" height="31.904"/>
				</g>
				<g>
					<rect x="10.002" y="98.332" style="fill:#E3E3E3;" width="21.298" height="31.904"/>
					<rect x="20.651" y="98.332" style="fill:#E3E3E3;" width="10.649" height="31.904"/>
				</g>
				<g>
					<rect x="63.498" y="98.332" style="fill:#E3E3E3;" width="21.298" height="31.904"/>
					<rect x="74.147" y="98.332" style="fill:#E3E3E3;" width="10.649" height="31.904"/>
				</g>
			</g>
			<g>
				<rect x="5.857" y="128.612" style="fill:#DFD6BF;" width="83.084" height="9.327"/>
				<rect x="5.857" y="134.328" style="fill:#DFD6BF;" width="83.084" height="3.611"/>
			</g>
			<g>
				<rect x="11.49" y="99.242" style="fill:#5F5F5F;" width="0.254" height="32.961"/>
				<rect x="14.57" y="99.242" style="fill:#5F5F5F;" width="0.253" height="32.961"/>
				<g>
					<rect x="11.617" y="105.088" style="fill:#5F5F5F;" width="3.08" height="0.162"/>
					<rect x="11.617" y="101.045" style="fill:#5F5F5F;" width="3.08" height="0.164"/>
					<rect x="11.617" y="113.17" style="fill:#5F5F5F;" width="3.08" height="0.164"/>
					<rect x="11.617" y="109.129" style="fill:#5F5F5F;" width="3.08" height="0.163"/>
					<rect x="11.617" y="121.254" style="fill:#5F5F5F;" width="3.08" height="0.163"/>
					<rect x="11.617" y="117.211" style="fill:#5F5F5F;" width="3.08" height="0.164"/>
					<rect x="11.617" y="129.338" style="fill:#5F5F5F;" width="3.08" height="0.162"/>
					<rect x="11.617" y="125.295" style="fill:#5F5F5F;" width="3.08" height="0.163"/>
				</g>
			</g>
			<g>
				<rect x="38.238" y="99.242" style="fill:#5F5F5F;" width="0.253" height="32.961"/>
				<rect x="41.318" y="99.242" style="fill:#5F5F5F;" width="0.253" height="32.961"/>
				<g>
					<rect x="38.365" y="105.088" style="fill:#5F5F5F;" width="3.08" height="0.162"/>
					<rect x="38.365" y="101.045" style="fill:#5F5F5F;" width="3.08" height="0.164"/>
					<rect x="38.365" y="113.17" style="fill:#5F5F5F;" width="3.08" height="0.164"/>
					<rect x="38.365" y="109.129" style="fill:#5F5F5F;" width="3.08" height="0.163"/>
					<rect x="38.365" y="121.254" style="fill:#5F5F5F;" width="3.08" height="0.163"/>
					<rect x="38.365" y="117.211" style="fill:#5F5F5F;" width="3.08" height="0.164"/>
					<rect x="38.365" y="129.338" style="fill:#5F5F5F;" width="3.08" height="0.162"/>
					<rect x="38.365" y="125.295" style="fill:#5F5F5F;" width="3.08" height="0.163"/>
				</g>
			</g>
			<g>
				<rect x="64.985" y="99.242" style="fill:#5F5F5F;" width="0.255" height="32.961"/>
				<rect x="68.066" y="99.242" style="fill:#5F5F5F;" width="0.254" height="32.961"/>
				<g>
					<rect x="65.112" y="105.088" style="fill:#5F5F5F;" width="3.081" height="0.162"/>
					<rect x="65.112" y="101.045" style="fill:#5F5F5F;" width="3.081" height="0.164"/>
					<rect x="65.112" y="113.17" style="fill:#5F5F5F;" width="3.081" height="0.164"/>
					<rect x="65.112" y="109.129" style="fill:#5F5F5F;" width="3.081" height="0.163"/>
					<rect x="65.112" y="121.254" style="fill:#5F5F5F;" width="3.081" height="0.163"/>
					<rect x="65.112" y="117.211" style="fill:#5F5F5F;" width="3.081" height="0.164"/>
					<rect x="65.112" y="129.338" style="fill:#5F5F5F;" width="3.081" height="0.162"/>
					<rect x="65.112" y="125.295" style="fill:#5F5F5F;" width="3.081" height="0.163"/>
				</g>
			</g>
		</g>
		<g>
			<path style="fill:#738893;" d="M88.893,137.939c-0.002-0.023-0.008-0.048-0.008-0.071v-1.653c0-0.387-0.092-0.67-0.275-0.842
				c-0.287-0.271-0.749-0.254-0.77-0.254c-0.019,0.002-0.035,0-0.053,0v-1.342c0.213-0.01,1.068-0.01,1.729,0.602
				c0.326,0.3,0.714,0.862,0.714,1.836v1.653c0,0.023-0.005,0.048-0.008,0.071H88.893z"/>
			<g style="opacity:0.4;">
				<path style="fill:#738893;" d="M89.517,134.379c-0.661-0.611-1.516-0.611-1.729-0.602v0.313
					c0.354,0.059,0.808,0.204,1.198,0.564c0.325,0.301,0.713,0.863,0.713,1.837v1.447h0.525c0.002-0.023,0.008-0.048,0.008-0.071
					v-1.653C90.231,135.241,89.842,134.679,89.517,134.379z"/>
			</g>
		</g>
		<g>
			<g>
				<path style="fill:#5E7078;" d="M74.154,135.701v-0.881c0,0-0.028-0.779-0.779-0.779c0,0,0,0-0.001,0
					c-0.751,0-0.78,0.779-0.78,0.779v0.881H74.154z"/>
				<path style="fill:#5E7078;" d="M72.595,135.135v0.566h1.559v-0.561C73.647,134.908,73.073,134.805,72.595,135.135z"/>
				<g>
					<path style="fill:#738893;" d="M74.804,136.511c0,0.788-0.64,1.429-1.429,1.429c-0.789,0-1.429-0.641-1.429-1.429
						c0-0.789,0.64-1.43,1.429-1.43C74.164,135.081,74.804,135.722,74.804,136.511z"/>
					<path style="fill:#242E31;" d="M74.416,136.511c0,0.575-0.467,1.04-1.041,1.04s-1.041-0.465-1.041-1.04
						c0-0.575,0.467-1.042,1.041-1.042S74.416,135.936,74.416,136.511z"/>
				</g>
			</g>
			<g>
				<path style="fill:#5E7078;" d="M64.808,135.701v-0.881c0,0-0.028-0.779-0.78-0.779l0,0c-0.751,0-0.779,0.779-0.779,0.779v0.881
					H64.808z"/>
				<path style="fill:#5E7078;" d="M63.249,135.135v0.566h1.559v-0.561C64.3,134.908,63.725,134.805,63.249,135.135z"/>
				<g>
					<path style="fill:#738893;" d="M65.458,136.511c0,0.788-0.641,1.429-1.43,1.429c-0.789,0-1.429-0.641-1.429-1.429
						c0-0.789,0.64-1.43,1.429-1.43C64.817,135.081,65.458,135.722,65.458,136.511z"/>
					<path style="fill:#242E31;" d="M65.069,136.511c0,0.575-0.466,1.04-1.041,1.04c-0.575,0-1.041-0.465-1.041-1.04
						c0-0.575,0.466-1.042,1.041-1.042C64.603,135.469,65.069,135.936,65.069,136.511z"/>
				</g>
			</g>
			<g>
				<path style="fill:#5E7078;" d="M83.502,135.701v-0.881c0,0-0.027-0.779-0.779-0.779c0,0,0,0,0,0
					c-0.751,0-0.779,0.779-0.779,0.779v0.881H83.502z"/>
				<path style="fill:#5E7078;" d="M81.943,135.135v0.566h1.559v-0.561C82.994,134.908,82.42,134.805,81.943,135.135z"/>
				<g>
					<path style="fill:#738893;" d="M84.151,136.511c0,0.788-0.64,1.429-1.429,1.429c-0.789,0-1.429-0.641-1.429-1.429
						c0-0.789,0.64-1.43,1.429-1.43C83.511,135.081,84.151,135.722,84.151,136.511z"/>
					<path style="fill:#242E31;" d="M83.763,136.511c0,0.575-0.466,1.04-1.041,1.04c-0.575,0-1.041-0.465-1.041-1.04
						c0-0.575,0.466-1.042,1.041-1.042C83.297,135.469,83.763,135.936,83.763,136.511z"/>
				</g>
			</g>
		</g>
	</g>
	<g>
		<g>
			<path style="fill:#979696;" d="M148.204,64.25c0,13.13-10.645,23.773-23.774,23.773l0,0c-13.131,0-23.775-10.644-23.775-23.773
				V28.178c0-13.133,10.645-23.775,23.775-23.775l0,0c13.129,0,23.774,10.643,23.774,23.775V64.25z"/>
			<path style="opacity:0.4;fill:#979696;" d="M124.43,4.402c-0.038,0-0.074,0.002-0.112,0.002v83.617
				c0.038,0,0.074,0.002,0.112,0.002c13.129,0,23.774-10.644,23.774-23.773V28.178C148.204,15.045,137.56,4.402,124.43,4.402z"/>
			<g>
				<g>
					<g>
						<rect x="93.526" y="76.439" style="fill:#6C6D6C;" width="4.403" height="11.584"/>
						<rect x="93.526" y="76.439" style="fill:#474947;" width="4.403" height="2.728"/>
					</g>
					<g>
						<rect x="152.625" y="76.439" style="fill:#6C6D6C;" width="4.403" height="11.584"/>
						<rect x="152.625" y="76.439" style="fill:#474947;" width="4.403" height="2.728"/>
					</g>
					<g>
						<rect x="113.226" y="76.439" style="fill:#6C6D6C;" width="4.404" height="11.584"/>
						<rect x="113.226" y="76.439" style="fill:#474947;" width="4.404" height="2.728"/>
					</g>
					<g>
						<rect x="132.925" y="76.439" style="fill:#6C6D6C;" width="4.403" height="11.584"/>
						<rect x="132.925" y="76.439" style="fill:#474947;" width="4.403" height="2.728"/>
					</g>
				</g>
				<g>
					<rect x="92.594" y="74.832" style="fill:#555557;" width="64.939" height="1.272"/>
					<rect x="92.594" y="75.802" style="fill:#272726;" width="64.939" height="1.274"/>
				</g>
			</g>
			<path style="opacity:0.5;fill:#D8EFFC;" d="M122.467,5.705c0,0-21.813,0.977-20.879,28.129
				C101.588,33.834,103.024,12.858,122.467,5.705z"/>
			<g>
				<g>
					<g>
						<rect x="113.226" y="27.854" style="fill:#1D1D1B;" width="4.404" height="2.728"/>
					</g>
					<g>
						<rect x="132.925" y="27.854" style="fill:#1D1D1B;" width="4.403" height="2.728"/>
					</g>
				</g>
				<g>
					<rect x="98.96" y="26.246" style="fill:#555557;" width="51.356" height="1.273"/>
					<rect x="98.96" y="27.217" style="fill:#272726;" width="51.356" height="1.273"/>
				</g>
			</g>
			<g>
				<rect x="102.698" y="24.06" style="fill:#1D1D1B;" width="0.71" height="50.772"/>
				<rect x="111.303" y="24.06" style="fill:#1D1D1B;" width="0.71" height="50.772"/>
				<g>
					<rect x="103.053" y="33.063" style="fill:#1D1D1B;" width="8.604" height="0.251"/>
					<rect x="103.053" y="26.837" style="fill:#1D1D1B;" width="8.604" height="0.253"/>
					<rect x="103.053" y="45.515" style="fill:#1D1D1B;" width="8.604" height="0.251"/>
					<rect x="103.053" y="39.289" style="fill:#1D1D1B;" width="8.604" height="0.251"/>
					<rect x="103.053" y="57.965" style="fill:#1D1D1B;" width="8.604" height="0.252"/>
					<rect x="103.053" y="51.74" style="fill:#1D1D1B;" width="8.604" height="0.25"/>
					<rect x="103.053" y="70.418" style="fill:#1D1D1B;" width="8.604" height="0.25"/>
					<rect x="103.053" y="64.19" style="fill:#1D1D1B;" width="8.604" height="0.252"/>
				</g>
			</g>
		</g>
		<g>
			<g>
				<path style="fill:#1D1D1B;" d="M124.43,42.836c-5.057,0-9.156,4.099-9.156,9.154c0,5.057,4.1,9.156,9.156,9.156
					c5.056,0,9.154-4.1,9.154-9.156C133.584,46.935,129.486,42.836,124.43,42.836z M124.43,60.549c-4.727,0-8.559-3.831-8.559-8.559
					c0-4.725,3.832-8.558,8.559-8.558c4.726,0,8.557,3.833,8.557,8.558C132.987,56.718,129.156,60.549,124.43,60.549z"/>
			</g>
			<g>
				<path style="fill:#EFAF00;" d="M126.679,51.924c0,1.243-1.007,2.251-2.249,2.251c-1.243,0-2.251-1.008-2.251-2.251
					c0-1.242,1.008-2.25,2.251-2.25C125.672,49.674,126.679,50.682,126.679,51.924z"/>
				<g>
					<path style="fill:#EFAF00;" d="M122.935,49.569l-2.61-4.511c-1.114,0.671-2.078,1.622-2.771,2.826
						c-0.693,1.202-1.033,2.516-1.054,3.813l5.211-0.004C121.758,50.805,122.233,50.029,122.935,49.569z"/>
					<path style="fill:#EFAF00;" d="M127.133,51.688l5.212-0.005c-0.057-2.637-1.427-5.186-3.839-6.635l-2.603,4.518
						C126.606,50.025,127.084,50.799,127.133,51.688z"/>
					<path style="fill:#EFAF00;" d="M123.199,54.266l-2.602,4.516c2.464,1.357,5.354,1.266,7.665-0.008l-2.611-4.512
						c-0.369,0.188-0.786,0.293-1.229,0.293C123.982,54.555,123.566,54.449,123.199,54.266z"/>
				</g>
			</g>
		</g>
	</g>
	<g>
		<g>
			<path style="fill:#1D1D1B;" d="M182.793,7.289c-9.817,0-17.776,7.959-17.776,17.776s7.959,17.776,17.776,17.776
				c9.817,0,17.777-7.959,17.777-17.776S192.61,7.289,182.793,7.289z M182.793,41.682c-9.176,0-16.617-7.439-16.617-16.616
				c0-9.177,7.44-16.616,16.617-16.616c9.177,0,16.617,7.439,16.617,16.616C199.41,34.243,191.97,41.682,182.793,41.682z"/>
		</g>
		<g>
			<path style="fill:#EFAF00;" d="M187.161,24.937c0,2.413-1.955,4.368-4.368,4.368c-2.412,0-4.369-1.955-4.369-4.368
				s1.957-4.37,4.369-4.37C185.206,20.566,187.161,22.524,187.161,24.937z"/>
			<g>
				<path style="fill:#EFAF00;" d="M179.891,20.363l-5.07-8.759c-2.161,1.302-4.032,3.149-5.379,5.486
					c-1.346,2.337-2.006,4.885-2.047,7.407l10.12-0.01C177.607,22.762,178.529,21.256,179.891,20.363z"/>
				<path style="fill:#EFAF00;" d="M188.042,24.479l10.121-0.009c-0.11-5.122-2.772-10.069-7.454-12.882l-5.052,8.77
					C187.02,21.247,187.947,22.752,188.042,24.479z"/>
				<path style="fill:#EFAF00;" d="M180.403,29.48l-5.051,8.769c4.783,2.638,10.398,2.459,14.883-0.015l-5.07-8.76
					c-0.717,0.364-1.526,0.571-2.386,0.571C181.923,30.046,181.117,29.841,180.403,29.48z"/>
			</g>
		</g>
	</g>
</g>
</svg>
